<svg width="163" height="21" viewBox="0 0 163 21" fill="none" xmlns="http://www.w3.org/2000/svg">
<path d="M18.592 0.343999L11.788 13.504V20H7V13.504L0.196 0.343999H5.628L9.436 8.576L13.216 0.343999H18.592ZM29.8172 20.196C27.9692 20.196 26.2705 19.7667 24.7212 18.908C23.1905 18.0493 21.9678 16.8547 21.0532 15.324C20.1572 13.7747 19.7092 12.0387 19.7092 10.116C19.7092 8.19333 20.1572 6.46667 21.0532 4.936C21.9678 3.40533 23.1905 2.21067 24.7212 1.352C26.2705 0.493333 27.9692 0.0639997 29.8172 0.0639997C31.6652 0.0639997 33.3545 0.493333 34.8852 1.352C36.4345 2.21067 37.6478 3.40533 38.5252 4.936C39.4212 6.46667 39.8692 8.19333 39.8692 10.116C39.8692 12.0387 39.4212 13.7747 38.5252 15.324C37.6292 16.8547 36.4158 18.0493 34.8852 18.908C33.3545 19.7667 31.6652 20.196 29.8172 20.196ZM29.8172 15.828C31.3852 15.828 32.6358 15.3053 33.5692 14.26C34.5212 13.2147 34.9972 11.8333 34.9972 10.116C34.9972 8.38 34.5212 6.99867 33.5692 5.972C32.6358 4.92667 31.3852 4.404 29.8172 4.404C28.2305 4.404 26.9612 4.91733 26.0092 5.944C25.0758 6.97067 24.6092 8.36133 24.6092 10.116C24.6092 11.852 25.0758 13.2427 26.0092 14.288C26.9612 15.3147 28.2305 15.828 29.8172 15.828ZM47.2369 0.343999V12.104C47.2369 13.28 47.5262 14.1853 48.1049 14.82C48.6835 15.4547 49.5329 15.772 50.6529 15.772C51.7729 15.772 52.6315 15.4547 53.2289 14.82C53.8262 14.1853 54.1249 13.28 54.1249 12.104V0.343999H58.9129V12.076C58.9129 13.8307 58.5395 15.3147 57.7929 16.528C57.0462 17.7413 56.0382 18.656 54.7689 19.272C53.5182 19.888 52.1182 20.196 50.5689 20.196C49.0195 20.196 47.6289 19.8973 46.3969 19.3C45.1835 18.684 44.2222 17.7693 43.5129 16.556C42.8035 15.324 42.4489 13.8307 42.4489 12.076V0.343999H47.2369ZM72.2991 20L68.2111 12.58H67.0631V20H62.2751V0.343999H70.3111C71.8604 0.343999 73.1764 0.614666 74.2591 1.156C75.3604 1.69733 76.1817 2.444 76.7231 3.396C77.2644 4.32933 77.5351 5.37467 77.5351 6.532C77.5351 7.83867 77.1617 9.00533 76.4151 10.032C75.6871 11.0587 74.6044 11.7867 73.1671 12.216L77.7031 20H72.2991ZM67.0631 9.192H70.0311C70.9084 9.192 71.5617 8.97733 71.9911 8.548C72.4391 8.11867 72.6631 7.512 72.6631 6.728C72.6631 5.98133 72.4391 5.39333 71.9911 4.964C71.5617 4.53467 70.9084 4.32 70.0311 4.32H67.0631V9.192ZM91.2623 16.304H97.5343V20H86.4743V0.343999H91.2623V16.304ZM109.114 20.196C107.266 20.196 105.567 19.7667 104.018 18.908C102.487 18.0493 101.265 16.8547 100.35 15.324C99.454 13.7747 99.006 12.0387 99.006 10.116C99.006 8.19333 99.454 6.46667 100.35 4.936C101.265 3.40533 102.487 2.21067 104.018 1.352C105.567 0.493333 107.266 0.0639997 109.114 0.0639997C110.962 0.0639997 112.651 0.493333 114.182 1.352C115.731 2.21067 116.945 3.40533 117.822 4.936C118.718 6.46667 119.166 8.19333 119.166 10.116C119.166 12.0387 118.718 13.7747 117.822 15.324C116.926 16.8547 115.713 18.0493 114.182 18.908C112.651 19.7667 110.962 20.196 109.114 20.196ZM109.114 15.828C110.682 15.828 111.933 15.3053 112.866 14.26C113.818 13.2147 114.294 11.8333 114.294 10.116C114.294 8.38 113.818 6.99867 112.866 5.972C111.933 4.92667 110.682 4.404 109.114 4.404C107.527 4.404 106.258 4.91733 105.306 5.944C104.373 6.97067 103.906 8.36133 103.906 10.116C103.906 11.852 104.373 13.2427 105.306 14.288C106.258 15.3147 107.527 15.828 109.114 15.828ZM134.878 6.56C134.523 5.90667 134.01 5.412 133.338 5.076C132.684 4.72133 131.91 4.544 131.014 4.544C129.464 4.544 128.223 5.05733 127.29 6.084C126.356 7.092 125.89 8.44533 125.89 10.144C125.89 11.9547 126.375 13.3733 127.346 14.4C128.335 15.408 129.688 15.912 131.406 15.912C132.582 15.912 133.571 15.6133 134.374 15.016C135.195 14.4187 135.792 13.56 136.166 12.44H130.09V8.912H140.506V13.364C140.151 14.5587 139.544 15.6693 138.686 16.696C137.846 17.7227 136.772 18.5533 135.466 19.188C134.159 19.8227 132.684 20.14 131.042 20.14C129.1 20.14 127.364 19.72 125.834 18.88C124.322 18.0213 123.136 16.836 122.278 15.324C121.438 13.812 121.018 12.0853 121.018 10.144C121.018 8.20267 121.438 6.476 122.278 4.964C123.136 3.43333 124.322 2.248 125.834 1.408C127.346 0.549332 129.072 0.119999 131.014 0.119999C133.366 0.119999 135.344 0.689332 136.95 1.828C138.574 2.96667 139.647 4.544 140.17 6.56H134.878ZM152.454 20.196C150.606 20.196 148.907 19.7667 147.358 18.908C145.827 18.0493 144.605 16.8547 143.69 15.324C142.794 13.7747 142.346 12.0387 142.346 10.116C142.346 8.19333 142.794 6.46667 143.69 4.936C144.605 3.40533 145.827 2.21067 147.358 1.352C148.907 0.493333 150.606 0.0639997 152.454 0.0639997C154.302 0.0639997 155.991 0.493333 157.522 1.352C159.071 2.21067 160.285 3.40533 161.162 4.936C162.058 6.46667 162.506 8.19333 162.506 10.116C162.506 12.0387 162.058 13.7747 161.162 15.324C160.266 16.8547 159.053 18.0493 157.522 18.908C155.991 19.7667 154.302 20.196 152.454 20.196ZM152.454 15.828C154.022 15.828 155.273 15.3053 156.206 14.26C157.158 13.2147 157.634 11.8333 157.634 10.116C157.634 8.38 157.158 6.99867 156.206 5.972C155.273 4.92667 154.022 4.404 152.454 4.404C150.867 4.404 149.598 4.91733 148.646 5.944C147.713 6.97067 147.246 8.36133 147.246 10.116C147.246 11.852 147.713 13.2427 148.646 14.288C149.598 15.3147 150.867 15.828 152.454 15.828Z" fill="#22262A"/>
</svg>
